{
    "asset" : {
        "generator" : "Khronos glTF Blender I/O v0.9.36",
        "version" : "2.0"
    },
    "scene" : 0,
    "scenes" : [
        {
            "name" : "Scene",
            "nodes" : [
                0,
                1,
                2,
                3,
                4,
                5
            ]
        }
    ],
    "nodes" : [
        {
            "mesh" : 0,
            "name" : "Gatilho",
            "rotation" : [
                0,
                1,
                0,
                -1.6292068494294654e-07
            ],
            "translation" : [
                0,
                3.386415958404541,
                3.362255096435547
            ]
        },
        {
            "mesh" : 1,
            "name" : "ProjetilM4A1",
            "rotation" : [
                0,
                1,
                0,
                -1.6292068494294654e-07
            ],
            "translation" : [
                0,
                6.783023834228516,
                1.6564677953720093
            ]
        },
        {
            "mesh" : 2,
            "name" : "Pente",
            "rotation" : [
                0,
                1,
                0,
                -1.6292068494294654e-07
            ],
            "translation" : [
                0,
                3.1941304206848145,
                -1.00066077709198
            ]
        },
        {
            "mesh" : 3,
            "name" : "Mira",
            "rotation" : [
                0,
                1,
                0,
                -1.6292068494294654e-07
            ],
            "translation" : [
                0,
                3.1941304206848145,
                -1.00066077709198
            ]
        },
        {
            "mesh" : 4,
            "name" : "Cano",
            "rotation" : [
                0,
                1,
                0,
                -1.6292068494294654e-07
            ],
            "translation" : [
                0,
                2.2405877113342285,
                2.5016517639160156
            ]
        },
        {
            "mesh" : 5,
            "name" : "Cabo",
            "rotation" : [
                0,
                1,
                0,
                -1.6292068494294654e-07
            ],
            "translation" : [
                0,
                3.1941304206848145,
                -1.00066077709198
            ]
        }
    ],
    "materials" : [
        {
            "doubleSided" : true,
            "name" : "Gatilho",
            "pbrMetallicRoughness" : {
                "baseColorTexture" : {
                    "index" : 0,
                    "texCoord" : 0
                },
                "metallicFactor" : 0,
                "roughnessFactor" : 0
            }
        },
        {
            "doubleSided" : true,
            "name" : "ProjetilM4A1",
            "pbrMetallicRoughness" : {
                "baseColorTexture" : {
                    "index" : 1,
                    "texCoord" : 0
                },
                "metallicFactor" : 0.9557521939277649,
                "roughnessFactor" : 1
            }
        },
        {
            "doubleSided" : true,
            "name" : "Pente",
            "pbrMetallicRoughness" : {
                "baseColorTexture" : {
                    "index" : 2,
                    "texCoord" : 0
                },
                "metallicFactor" : 0,
                "roughnessFactor" : 0
            }
        },
        {
            "doubleSided" : true,
            "name" : "Mira",
            "pbrMetallicRoughness" : {}
        },
        {
            "doubleSided" : true,
            "name" : "Cano",
            "pbrMetallicRoughness" : {
                "baseColorTexture" : {
                    "index" : 3,
                    "texCoord" : 0
                },
                "metallicFactor" : 0,
                "roughnessFactor" : 0
            }
        },
        {
            "doubleSided" : true,
            "name" : "Cabo",
            "pbrMetallicRoughness" : {
                "baseColorTexture" : {
                    "index" : 4,
                    "texCoord" : 0
                },
                "metallicFactor" : 0.4955752193927765,
                "roughnessFactor" : 0.29203540086746216
            }
        }
    ],
    "meshes" : [
        {
            "name" : "Cube.002",
            "primitives" : [
                {
                    "attributes" : {
                        "POSITION" : 0,
                        "NORMAL" : 1,
                        "TEXCOORD_0" : 2
                    },
                    "indices" : 3,
                    "material" : 0
                }
            ]
        },
        {
            "name" : "Cylinder.002",
            "primitives" : [
                {
                    "attributes" : {
                        "POSITION" : 4,
                        "NORMAL" : 5,
                        "TEXCOORD_0" : 6
                    },
                    "indices" : 7,
                    "material" : 1
                }
            ]
        },
        {
            "name" : "Cube.006",
            "primitives" : [
                {
                    "attributes" : {
                        "POSITION" : 8,
                        "NORMAL" : 9,
                        "TEXCOORD_0" : 10
                    },
                    "indices" : 11,
                    "material" : 2
                }
            ]
        },
        {
            "name" : "Cube.003",
            "primitives" : [
                {
                    "attributes" : {
                        "POSITION" : 12,
                        "NORMAL" : 13,
                        "TEXCOORD_0" : 14
                    },
                    "indices" : 15,
                    "material" : 3
                }
            ]
        },
        {
            "name" : "Cylinder",
            "primitives" : [
                {
                    "attributes" : {
                        "POSITION" : 16,
                        "NORMAL" : 17,
                        "TEXCOORD_0" : 18
                    },
                    "indices" : 19,
                    "material" : 4
                }
            ]
        },
        {
            "name" : "Cube",
            "primitives" : [
                {
                    "attributes" : {
                        "POSITION" : 20,
                        "NORMAL" : 21,
                        "TEXCOORD_0" : 22
                    },
                    "indices" : 23,
                    "material" : 5
                }
            ]
        }
    ],
    "textures" : [
        {
            "source" : 0
        },
        {
            "source" : 1
        },
        {
            "source" : 2
        },
        {
            "source" : 3
        },
        {
            "source" : 4
        }
    ],
    "images" : [
        {
            "bufferView" : 4,
            "mimeType" : "image/png",
            "name" : "GatilhoTextura"
        },
        {
            "bufferView" : 9,
            "mimeType" : "image/png",
            "name" : "ProjetilM4A1Textura"
        },
        {
            "bufferView" : 14,
            "mimeType" : "image/png",
            "name" : "PenteTextura"
        },
        {
            "bufferView" : 23,
            "mimeType" : "image/png",
            "name" : "CanoTextura"
        },
        {
            "bufferView" : 28,
            "mimeType" : "image/png",
            "name" : "CaboTextura"
        }
    ],
    "accessors" : [
        {
            "bufferView" : 0,
            "componentType" : 5126,
            "count" : 76,
            "max" : [
                0.06999855488538742,
                0.03638759255409241,
                0.08549731969833374
            ],
            "min" : [
                -0.07000147551298141,
                -0.8676214814186096,
                -0.23191648721694946
            ],
            "type" : "VEC3"
        },
        {
            "bufferView" : 1,
            "componentType" : 5126,
            "count" : 76,
            "type" : "VEC3"
        },
        {
            "bufferView" : 2,
            "componentType" : 5126,
            "count" : 76,
            "type" : "VEC2"
        },
        {
            "bufferView" : 3,
            "componentType" : 5123,
            "count" : 126,
            "type" : "SCALAR"
        },
        {
            "bufferView" : 5,
            "componentType" : 5126,
            "count" : 478,
            "max" : [
                0.12964226305484772,
                0.14005154371261597,
                1.835449457168579
            ],
            "min" : [
                -0.1343577802181244,
                -0.12394839525222778,
                0.01918288692831993
            ],
            "type" : "VEC3"
        },
        {
            "bufferView" : 6,
            "componentType" : 5126,
            "count" : 478,
            "type" : "VEC3"
        },
        {
            "bufferView" : 7,
            "componentType" : 5126,
            "count" : 478,
            "type" : "VEC2"
        },
        {
            "bufferView" : 8,
            "componentType" : 5123,
            "count" : 780,
            "type" : "SCALAR"
        },
        {
            "bufferView" : 10,
            "componentType" : 5126,
            "count" : 791,
            "max" : [
                0.2948342561721802,
                1.149999976158142,
                -0.5270216464996338
            ],
            "min" : [
                -0.2948342561721802,
                -4.551362037658691,
                -3.2474822998046875
            ],
            "type" : "VEC3"
        },
        {
            "bufferView" : 11,
            "componentType" : 5126,
            "count" : 791,
            "type" : "VEC3"
        },
        {
            "bufferView" : 12,
            "componentType" : 5126,
            "count" : 791,
            "type" : "VEC2"
        },
        {
            "bufferView" : 13,
            "componentType" : 5123,
            "count" : 1431,
            "type" : "SCALAR"
        },
        {
            "bufferView" : 15,
            "componentType" : 5126,
            "count" : 1165,
            "max" : [
                0.7399999499320984,
                4.349999904632568,
                8
            ],
            "min" : [
                -0.7399999499320984,
                1.1999999284744263,
                -7.186639785766602
            ],
            "type" : "VEC3"
        },
        {
            "bufferView" : 16,
            "componentType" : 5126,
            "count" : 1165,
            "type" : "VEC3"
        },
        {
            "bufferView" : 17,
            "componentType" : 5126,
            "count" : 1165,
            "type" : "VEC2"
        },
        {
            "bufferView" : 18,
            "componentType" : 5123,
            "count" : 1998,
            "type" : "SCALAR"
        },
        {
            "bufferView" : 19,
            "componentType" : 5126,
            "count" : 1032,
            "max" : [
                0.3893888592720032,
                3.2893896102905273,
                17.59377670288086
            ],
            "min" : [
                -0.3893888294696808,
                2.5106122493743896,
                9.48009204864502
            ],
            "type" : "VEC3"
        },
        {
            "bufferView" : 20,
            "componentType" : 5126,
            "count" : 1032,
            "type" : "VEC3"
        },
        {
            "bufferView" : 21,
            "componentType" : 5126,
            "count" : 1032,
            "type" : "VEC2"
        },
        {
            "bufferView" : 22,
            "componentType" : 5123,
            "count" : 1812,
            "type" : "SCALAR"
        },
        {
            "bufferView" : 24,
            "componentType" : 5126,
            "count" : 8158,
            "max" : [
                0.9599999785423279,
                2.927462100982666,
                6.000791072845459
            ],
            "min" : [
                -1.0044357776641846,
                -3.3080496788024902,
                -15.8516263961792
            ],
            "type" : "VEC3"
        },
        {
            "bufferView" : 25,
            "componentType" : 5126,
            "count" : 8158,
            "type" : "VEC3"
        },
        {
            "bufferView" : 26,
            "componentType" : 5126,
            "count" : 8158,
            "type" : "VEC2"
        },
        {
            "bufferView" : 27,
            "componentType" : 5123,
            "count" : 13857,
            "type" : "SCALAR"
        }
    ],
    "bufferViews" : [
        {
            "buffer" : 0,
            "byteLength" : 912,
            "byteOffset" : 0
        },
        {
            "buffer" : 0,
            "byteLength" : 912,
            "byteOffset" : 912
        },
        {
            "buffer" : 0,
            "byteLength" : 608,
            "byteOffset" : 1824
        },
        {
            "buffer" : 0,
            "byteLength" : 252,
            "byteOffset" : 2432
        },
        {
            "buffer" : 0,
            "byteLength" : 20565,
            "byteOffset" : 2684
        },
        {
            "buffer" : 0,
            "byteLength" : 5736,
            "byteOffset" : 23252
        },
        {
            "buffer" : 0,
            "byteLength" : 5736,
            "byteOffset" : 28988
        },
        {
            "buffer" : 0,
            "byteLength" : 3824,
            "byteOffset" : 34724
        },
        {
            "buffer" : 0,
            "byteLength" : 1560,
            "byteOffset" : 38548
        },
        {
            "buffer" : 0,
            "byteLength" : 20566,
            "byteOffset" : 40108
        },
        {
            "buffer" : 0,
            "byteLength" : 9492,
            "byteOffset" : 60676
        },
        {
            "buffer" : 0,
            "byteLength" : 9492,
            "byteOffset" : 70168
        },
        {
            "buffer" : 0,
            "byteLength" : 6328,
            "byteOffset" : 79660
        },
        {
            "buffer" : 0,
            "byteLength" : 2862,
            "byteOffset" : 85988
        },
        {
            "buffer" : 0,
            "byteLength" : 20565,
            "byteOffset" : 88852
        },
        {
            "buffer" : 0,
            "byteLength" : 13980,
            "byteOffset" : 109420
        },
        {
            "buffer" : 0,
            "byteLength" : 13980,
            "byteOffset" : 123400
        },
        {
            "buffer" : 0,
            "byteLength" : 9320,
            "byteOffset" : 137380
        },
        {
            "buffer" : 0,
            "byteLength" : 3996,
            "byteOffset" : 146700
        },
        {
            "buffer" : 0,
            "byteLength" : 12384,
            "byteOffset" : 150696
        },
        {
            "buffer" : 0,
            "byteLength" : 12384,
            "byteOffset" : 163080
        },
        {
            "buffer" : 0,
            "byteLength" : 8256,
            "byteOffset" : 175464
        },
        {
            "buffer" : 0,
            "byteLength" : 3624,
            "byteOffset" : 183720
        },
        {
            "buffer" : 0,
            "byteLength" : 20565,
            "byteOffset" : 187344
        },
        {
            "buffer" : 0,
            "byteLength" : 97896,
            "byteOffset" : 207912
        },
        {
            "buffer" : 0,
            "byteLength" : 97896,
            "byteOffset" : 305808
        },
        {
            "buffer" : 0,
            "byteLength" : 65264,
            "byteOffset" : 403704
        },
        {
            "buffer" : 0,
            "byteLength" : 27714,
            "byteOffset" : 468968
        },
        {
            "buffer" : 0,
            "byteLength" : 20565,
            "byteOffset" : 496684
        }
    ],
    "buffers" : [
        {
            "byteLength" : 517252,
            "uri" : "data:application/octet-stream;base64,"
        }
    ]
}
